<svg width="144" height="163" viewBox="0 0 144 163" fill="none" xmlns="http://www.w3.org/2000/svg">
<rect x="14" y="0.421021" width="116" height="157.368" fill="#202027"/>
<g clip-path="url(#clip0_5_18)">
<path d="M93.8205 42.7658L99 46.421L71.9955 65.4868L45 46.421L50.1772 42.7658L71.9955 58.1764L93.8205 42.7658ZM71.9955 71.7922L50.1772 56.3815L45 60.0394L71.9955 79.1052L99 60.0394L93.8205 56.3843L71.9955 71.7922ZM99 32.8026L71.9955 13.7368L45 32.8026L71.9955 51.8684L99 32.8026Z" fill="#EAEAEA"/>
</g>
<path d="M44.5485 124.385H37.2525L35.9085 128.105H33.6045L39.6525 111.473H42.1725L48.1965 128.105H45.8925L44.5485 124.385ZM43.9245 122.609L40.9005 114.161L37.8765 122.609H43.9245ZM53.0164 110.345V128.105H50.8324V110.345H53.0164ZM58.9226 117.401C59.3706 116.617 60.0266 115.977 60.8906 115.481C61.7546 114.985 62.7386 114.737 63.8426 114.737C65.0266 114.737 66.0906 115.017 67.0346 115.577C67.9786 116.137 68.7226 116.929 69.2666 117.953C69.8106 118.961 70.0826 120.137 70.0826 121.481C70.0826 122.809 69.8106 123.993 69.2666 125.033C68.7226 126.073 67.9706 126.881 67.0106 127.457C66.0666 128.033 65.0106 128.321 63.8426 128.321C62.7066 128.321 61.7066 128.073 60.8426 127.577C59.9946 127.081 59.3546 126.449 58.9226 125.681V128.105H56.7386V110.345H58.9226V117.401ZM67.8506 121.481C67.8506 120.489 67.6506 119.625 67.2506 118.889C66.8506 118.153 66.3066 117.593 65.6186 117.209C64.9466 116.825 64.2026 116.633 63.3866 116.633C62.5866 116.633 61.8426 116.833 61.1546 117.233C60.4826 117.617 59.9386 118.185 59.5226 118.937C59.1226 119.673 58.9226 120.529 58.9226 121.505C58.9226 122.497 59.1226 123.369 59.5226 124.121C59.9386 124.857 60.4826 125.425 61.1546 125.825C61.8426 126.209 62.5866 126.401 63.3866 126.401C64.2026 126.401 64.9466 126.209 65.6186 125.825C66.3066 125.425 66.8506 124.857 67.2506 124.121C67.6506 123.369 67.8506 122.489 67.8506 121.481ZM84.6214 114.953V128.105H82.4374V126.161C82.0214 126.833 81.4374 127.361 80.6854 127.745C79.9494 128.113 79.1334 128.297 78.2374 128.297C77.2134 128.297 76.2934 128.089 75.4774 127.673C74.6614 127.241 74.0134 126.601 73.5334 125.753C73.0694 124.905 72.8374 123.873 72.8374 122.657V114.953H74.9974V122.369C74.9974 123.665 75.3254 124.665 75.9814 125.369C76.6374 126.057 77.5334 126.401 78.6694 126.401C79.8374 126.401 80.7574 126.041 81.4294 125.321C82.1014 124.601 82.4374 123.553 82.4374 122.177V114.953H84.6214ZM104.125 114.713C105.149 114.713 106.061 114.929 106.861 115.361C107.661 115.777 108.293 116.409 108.757 117.257C109.221 118.105 109.453 119.137 109.453 120.353V128.105H107.293V120.665C107.293 119.353 106.965 118.353 106.309 117.665C105.669 116.961 104.797 116.609 103.693 116.609C102.557 116.609 101.653 116.977 100.981 117.713C100.309 118.433 99.9729 119.481 99.9729 120.857V128.105H97.8129V120.665C97.8129 119.353 97.4849 118.353 96.8289 117.665C96.1889 116.961 95.3169 116.609 94.2129 116.609C93.0769 116.609 92.1729 116.977 91.5009 117.713C90.8289 118.433 90.4929 119.481 90.4929 120.857V128.105H88.3089V114.953H90.4929V116.849C90.9249 116.161 91.5009 115.633 92.2209 115.265C92.9569 114.897 93.7649 114.713 94.6449 114.713C95.7489 114.713 96.7249 114.961 97.5729 115.457C98.4209 115.953 99.0529 116.681 99.4689 117.641C99.8369 116.713 100.445 115.993 101.293 115.481C102.141 114.969 103.085 114.713 104.125 114.713Z" fill="white"/>
<defs>
<clipPath id="clip0_5_18">
<rect width="57" height="65.3684" fill="white" transform="translate(43 13.7368)"/>
</clipPath>
</defs>
</svg>
