<svg width="144" height="162" viewBox="0 0 144 162" fill="none" xmlns="http://www.w3.org/2000/svg">
<rect x="14" y="0.421021" width="116" height="157.368" fill="#202027"/>
<g clip-path="url(#clip0_5_3)">
<path d="M93.9334 46.0742C91.5664 48.3676 76.0661 63.3914 72.4774 66.8723L66.4092 59.5264L83.6621 33.6405L93.9334 46.0742ZM105.879 19.1996C101.255 13.6024 93.7556 13.6024 89.1319 19.1996C86.0831 22.8929 85.8244 26.9403 85.6759 28.3757L98.2984 43.6556C99.3874 43.5085 102.803 43.1952 105.879 39.472C110.505 33.8748 110.505 24.7968 105.879 19.1996ZM83.7521 68.0625C78.5951 68.0625 76.2394 71.9492 72.9161 74.4768C70.5626 76.2635 68.3352 75.3565 67.2642 73.7523C66.8749 73.1775 65.7634 71.1075 67.6557 68.7353L67.3744 68.3947L64.8409 65.4233C61.7539 69.28 62.3007 73.8885 64.2132 76.7456C66.4069 80.0249 70.8191 81.6809 75.0019 78.5024C78.5681 75.7923 80.1476 72.8153 83.7521 72.8153C86.0831 72.8153 88.2071 74.0791 91.5934 80.3681L94.8806 77.7751C91.7464 71.9464 88.6526 68.0625 83.7521 68.0625Z" fill="#EAEAEA"/>
</g>
<path d="M32.8601 118.519C32.8601 116.887 33.2281 115.423 33.9641 114.127C34.7001 112.815 35.7001 111.791 36.9641 111.055C38.2441 110.319 39.6601 109.951 41.2121 109.951C43.0361 109.951 44.6281 110.391 45.9881 111.271C47.3481 112.151 48.3401 113.399 48.9641 115.015H46.3481C45.8841 114.007 45.2121 113.231 44.3321 112.687C43.4681 112.143 42.4281 111.871 41.2121 111.871C40.0441 111.871 38.9961 112.143 38.0681 112.687C37.1401 113.231 36.4121 114.007 35.8841 115.015C35.3561 116.007 35.0921 117.175 35.0921 118.519C35.0921 119.847 35.3561 121.015 35.8841 122.023C36.4121 123.015 37.1401 123.783 38.0681 124.327C38.9961 124.871 40.0441 125.143 41.2121 125.143C42.4281 125.143 43.4681 124.879 44.3321 124.351C45.2121 123.807 45.8841 123.031 46.3481 122.023H48.9641C48.3401 123.623 47.3481 124.863 45.9881 125.743C44.6281 126.607 43.0361 127.039 41.2121 127.039C39.6601 127.039 38.2441 126.679 36.9641 125.959C35.7001 125.223 34.7001 124.207 33.9641 122.911C33.2281 121.615 32.8601 120.151 32.8601 118.519ZM58.7432 113.503C59.7352 113.503 60.6312 113.719 61.4312 114.151C62.2312 114.567 62.8552 115.199 63.3032 116.047C63.7672 116.895 63.9992 117.927 63.9992 119.143V126.895H61.8392V119.455C61.8392 118.143 61.5112 117.143 60.8552 116.455C60.1992 115.751 59.3032 115.399 58.1672 115.399C57.0152 115.399 56.0952 115.759 55.4072 116.479C54.7352 117.199 54.3992 118.247 54.3992 119.623V126.895H52.2152V109.135H54.3992V115.615C54.8312 114.943 55.4232 114.423 56.1752 114.055C56.9432 113.687 57.7992 113.503 58.7432 113.503ZM66.7508 120.271C66.7508 118.927 67.0228 117.751 67.5668 116.743C68.1108 115.719 68.8548 114.927 69.7988 114.367C70.7588 113.807 71.8228 113.527 72.9908 113.527C74.1428 113.527 75.1428 113.775 75.9908 114.271C76.8388 114.767 77.4708 115.391 77.8868 116.143V113.743H80.0948V126.895H77.8868V124.447C77.4548 125.215 76.8068 125.855 75.9428 126.367C75.0948 126.863 74.1028 127.111 72.9668 127.111C71.7988 127.111 70.7428 126.823 69.7988 126.247C68.8548 125.671 68.1108 124.863 67.5668 123.823C67.0228 122.783 66.7508 121.599 66.7508 120.271ZM77.8868 120.295C77.8868 119.303 77.6868 118.439 77.2868 117.703C76.8868 116.967 76.3428 116.407 75.6548 116.023C74.9828 115.623 74.2388 115.423 73.4228 115.423C72.6068 115.423 71.8628 115.615 71.1908 115.999C70.5188 116.383 69.9828 116.943 69.5828 117.679C69.1828 118.415 68.9828 119.279 68.9828 120.271C68.9828 121.279 69.1828 122.159 69.5828 122.911C69.9828 123.647 70.5188 124.215 71.1908 124.615C71.8628 124.999 72.6068 125.191 73.4228 125.191C74.2388 125.191 74.9828 124.999 75.6548 124.615C76.3428 124.215 76.8868 123.647 77.2868 122.911C77.6868 122.159 77.8868 121.287 77.8868 120.295ZM85.9695 115.879C86.3535 115.127 86.8975 114.543 87.6015 114.127C88.3215 113.711 89.1935 113.503 90.2175 113.503V115.759H89.6415C87.1935 115.759 85.9695 117.087 85.9695 119.743V126.895H83.7855V113.743H85.9695V115.879ZM95.4026 115.543V123.295C95.4026 123.935 95.5386 124.391 95.8106 124.663C96.0826 124.919 96.5546 125.047 97.2266 125.047H98.8346V126.895H96.8666C95.6506 126.895 94.7386 126.615 94.1306 126.055C93.5226 125.495 93.2186 124.575 93.2186 123.295V115.543H91.5146V113.743H93.2186V110.431H95.4026V113.743H98.8346V115.543H95.4026ZM106.137 127.111C105.129 127.111 104.225 126.943 103.425 126.607C102.625 126.255 101.993 125.775 101.529 125.167C101.065 124.543 100.809 123.831 100.761 123.031H103.017C103.081 123.687 103.385 124.223 103.929 124.639C104.489 125.055 105.217 125.263 106.113 125.263C106.945 125.263 107.601 125.079 108.081 124.711C108.561 124.343 108.801 123.879 108.801 123.319C108.801 122.743 108.545 122.319 108.033 122.047C107.521 121.759 106.729 121.479 105.657 121.207C104.681 120.951 103.881 120.695 103.257 120.439C102.649 120.167 102.121 119.775 101.673 119.263C101.241 118.735 101.025 118.047 101.025 117.199C101.025 116.527 101.225 115.911 101.625 115.351C102.025 114.791 102.593 114.351 103.329 114.031C104.065 113.695 104.905 113.527 105.849 113.527C107.305 113.527 108.481 113.895 109.377 114.631C110.273 115.367 110.753 116.375 110.817 117.655H108.633C108.585 116.967 108.305 116.415 107.793 115.999C107.297 115.583 106.625 115.375 105.777 115.375C104.993 115.375 104.369 115.543 103.905 115.879C103.441 116.215 103.209 116.655 103.209 117.199C103.209 117.631 103.345 117.991 103.617 118.279C103.905 118.551 104.257 118.775 104.673 118.951C105.105 119.111 105.697 119.295 106.449 119.503C107.393 119.759 108.161 120.015 108.753 120.271C109.345 120.511 109.849 120.879 110.265 121.375C110.697 121.871 110.921 122.519 110.937 123.319C110.937 124.039 110.737 124.687 110.337 125.263C109.937 125.839 109.369 126.295 108.633 126.631C107.913 126.951 107.081 127.111 106.137 127.111Z" fill="white"/>
<defs>
<clipPath id="clip0_5_3">
<rect width="54" height="65.3684" fill="white" transform="translate(59 15)"/>
</clipPath>
</defs>
</svg>
