<svg width="144" height="164" viewBox="0 0 144 164" fill="none" xmlns="http://www.w3.org/2000/svg">
<rect x="14" width="116" height="157.368" fill="#202027"/>
<g clip-path="url(#clip0_6_47)">
<path d="M68.0071 18.7632C80.5921 18.7632 90.8308 30.9816 90.8308 46C90.8308 61.0184 80.5921 73.2369 68.0071 73.2369C55.4221 73.2369 45.1834 61.0184 45.1834 46C45.1834 30.9816 55.4221 18.7632 68.0071 18.7632ZM68.0071 13.3158C52.8818 13.3158 40.6187 27.9502 40.6187 46C40.6187 64.0499 52.8818 78.6842 68.0071 78.6842C83.1324 78.6842 95.3956 64.0499 95.3956 46C95.3956 27.9502 83.1324 13.3158 68.0071 13.3158ZM72.5719 46L62.3012 58.2566L65.7864 62.3421L79.419 46L65.7864 29.6579L62.3012 33.7434L72.5719 46Z" fill="#EAEAEA"/>
</g>
<path d="M60.8863 112.287V128.895H58.7023V116.511L53.1823 128.895H51.6463L46.1023 116.487V128.895H43.9183V112.287H46.2703L52.4143 126.015L58.5583 112.287H60.8863ZM70.3262 129.111C69.0942 129.111 67.9742 128.831 66.9662 128.271C65.9742 127.711 65.1902 126.919 64.6142 125.895C64.0542 124.855 63.7742 123.655 63.7742 122.295C63.7742 120.951 64.0622 119.767 64.6382 118.743C65.2302 117.703 66.0302 116.911 67.0382 116.367C68.0462 115.807 69.1742 115.527 70.4222 115.527C71.6702 115.527 72.7982 115.807 73.8062 116.367C74.8142 116.911 75.6062 117.695 76.1822 118.719C76.7742 119.743 77.0702 120.935 77.0702 122.295C77.0702 123.655 76.7662 124.855 76.1582 125.895C75.5662 126.919 74.7582 127.711 73.7342 128.271C72.7102 128.831 71.5742 129.111 70.3262 129.111ZM70.3262 127.191C71.1102 127.191 71.8462 127.007 72.5342 126.639C73.2222 126.271 73.7742 125.719 74.1902 124.983C74.6222 124.247 74.8382 123.351 74.8382 122.295C74.8382 121.239 74.6302 120.343 74.2142 119.607C73.7982 118.871 73.2542 118.327 72.5822 117.975C71.9102 117.607 71.1822 117.423 70.3982 117.423C69.5982 117.423 68.8622 117.607 68.1902 117.975C67.5342 118.327 67.0062 118.871 66.6062 119.607C66.2062 120.343 66.0062 121.239 66.0062 122.295C66.0062 123.367 66.1982 124.271 66.5822 125.007C66.9822 125.743 67.5102 126.295 68.1662 126.663C68.8222 127.015 69.5422 127.191 70.3262 127.191ZM82.1258 117.879C82.5098 117.127 83.0538 116.543 83.7578 116.127C84.4778 115.711 85.3498 115.503 86.3738 115.503V117.759H85.7978C83.3498 117.759 82.1258 119.087 82.1258 121.743V128.895H79.9418V115.743H82.1258V117.879ZM100.895 121.815C100.895 122.231 100.871 122.671 100.823 123.135H90.3109C90.3909 124.431 90.8309 125.447 91.6309 126.183C92.4469 126.903 93.4309 127.263 94.5829 127.263C95.5269 127.263 96.3109 127.047 96.9349 126.615C97.5749 126.167 98.0229 125.575 98.2789 124.839H100.631C100.279 126.103 99.5749 127.135 98.5189 127.935C97.4629 128.719 96.1509 129.111 94.5829 129.111C93.3349 129.111 92.2149 128.831 91.2229 128.271C90.2469 127.711 89.4789 126.919 88.9189 125.895C88.3589 124.855 88.0789 123.655 88.0789 122.295C88.0789 120.935 88.3509 119.743 88.8949 118.719C89.4389 117.695 90.1989 116.911 91.1749 116.367C92.1669 115.807 93.3029 115.527 94.5829 115.527C95.8309 115.527 96.9349 115.799 97.8949 116.343C98.8549 116.887 99.5909 117.639 100.103 118.599C100.631 119.543 100.895 120.615 100.895 121.815ZM98.6389 121.359C98.6389 120.527 98.4549 119.815 98.0869 119.223C97.7189 118.615 97.2149 118.159 96.5749 117.855C95.9509 117.535 95.2549 117.375 94.4869 117.375C93.3829 117.375 92.4389 117.727 91.6549 118.431C90.8869 119.135 90.4469 120.111 90.3349 121.359H98.6389Z" fill="white"/>
<defs>
<clipPath id="clip0_6_47">
<rect width="56" height="65.3684" fill="white" transform="translate(40 13.3158)"/>
</clipPath>
</defs>
</svg>
